<?xml version="1.0" standalone="no"?>
<!DOCTYPE svg PUBLIC "-//W3C//DTD SVG 20010904//EN"
 "http://www.w3.org/TR/2001/REC-SVG-20010904/DTD/svg10.dtd">
<svg version="1.0" xmlns="http://www.w3.org/2000/svg"
 width="300.000000pt" height="299.000000pt" viewBox="0 0 300.000000 299.000000"
 preserveAspectRatio="xMidYMid meet">
<metadata>
Created by potrace 1.10, written by Peter Selinger 2001-2011
</metadata>
<g transform="translate(0.000000,299.000000) scale(0.100000,-0.100000)"
fill="#000000" stroke="none">
<path d="M1135 2789 c-367 -47 -674 -328 -776 -709 -19 -70 -23 -111 -23 -235
-1 -159 9 -214 58 -337 67 -165 209 -323 381 -423 15 -9 10 -16 -40 -50 -57
-40 -57 -40 -52 -83 2 -24 6 -45 8 -47 3 -2 45 -9 94 -16 181 -24 459 1 627
57 51 17 52 20 10 73 l-19 23 -104 -26 c-121 -31 -316 -50 -409 -41 l-65 7 63
62 63 63 -86 41 c-193 93 -324 236 -395 431 -140 384 56 856 433 1041 121 59
190 75 337 75 146 0 235 -21 365 -86 244 -120 422 -379 458 -661 20 -161 -20
-347 -105 -493 -49 -82 -167 -204 -256 -263 l-63 -41 34 -37 34 -37 79 58
c243 180 360 397 371 690 8 201 -31 350 -138 524 -153 249 -397 404 -689 441
-94 11 -96 11 -195 -1z m257 -41 c10 -2 21 -7 24 -11 4 -4 20 -7 35 -7 15 0
30 -4 33 -9 3 -5 21 -12 40 -15 19 -4 47 -13 62 -21 16 -7 40 -18 54 -23 89
-35 247 -179 324 -296 113 -171 156 -300 160 -479 3 -98 -1 -138 -19 -222 -29
-139 -114 -291 -221 -399 -70 -70 -174 -143 -174 -123 0 8 19 27 43 42 114 76
214 197 283 345 29 61 29 63 51 175 14 76 14 277 0 330 -3 11 -12 44 -19 73
-7 28 -16 52 -20 52 -5 0 -8 6 -8 14 0 35 -123 229 -189 299 -20 21 -61 57
-91 80 -30 23 -57 44 -60 47 -28 29 -253 115 -330 125 -77 10 -245 5 -308 -9
-64 -14 -218 -77 -232 -95 -3 -3 -18 -13 -33 -20 -40 -21 -136 -106 -194 -173
-49 -57 -102 -145 -134 -223 -9 -22 -22 -53 -30 -70 -7 -16 -13 -37 -14 -47
-1 -9 -6 -25 -10 -35 -25 -58 -26 -385 -2 -409 4 -4 7 -15 7 -24 0 -16 22 -75
53 -140 29 -62 85 -140 141 -195 83 -82 112 -105 187 -144 35 -18 68 -37 73
-42 5 -5 -6 -25 -27 -49 -21 -22 -37 -49 -37 -60 0 -33 51 -51 143 -51 106 -1
237 10 262 21 20 9 53 15 135 26 36 5 43 4 33 -6 -7 -8 -20 -14 -30 -15 -10
-1 -25 -5 -33 -8 -59 -24 -214 -42 -365 -41 -238 1 -274 20 -191 101 25 24 46
51 46 58 0 18 -31 47 -101 96 -178 121 -313 350 -339 574 -12 99 -12 97 0 90
6 -3 10 -2 10 4 0 5 -5 13 -11 16 -5 4 -8 19 -5 33 3 15 8 53 11 85 3 32 10
69 15 83 5 13 7 24 5 24 -6 0 22 77 41 113 8 15 13 27 10 27 -5 0 73 142 83
150 3 3 26 32 51 64 39 52 116 123 207 192 25 19 86 49 148 74 11 4 40 13 65
20 25 7 54 16 65 21 11 5 36 10 55 12 41 4 247 0 272 -5z"/>
<path d="M1860 2081 c-189 -61 -322 -176 -410 -356 -53 -106 -70 -179 -70
-295 0 -116 17 -188 70 -297 88 -178 277 -316 531 -385 73 -20 107 -23 266
-23 109 0 186 4 191 10 5 6 12 28 15 51 4 36 2 42 -24 57 -16 9 -29 20 -29 24
0 4 20 21 45 36 67 43 158 148 199 231 91 184 88 390 -9 591 -82 169 -211 287
-390 355 -26 10 -26 9 -20 -28 12 -66 15 -71 78 -104 132 -70 251 -224 293
-378 25 -94 23 -236 -6 -320 -50 -149 -176 -281 -312 -331 -21 -7 -38 -16 -38
-19 0 -4 17 -26 37 -50 l37 -43 -109 6 c-149 9 -260 37 -382 98 -194 96 -313
242 -343 420 -49 292 140 588 424 662 32 9 60 18 63 20 2 3 -1 23 -8 46 -14
47 -19 48 -99 22z m60 -39 c0 -5 -24 -14 -52 -22 -93 -23 -179 -81 -267 -176
-33 -37 -61 -73 -61 -80 0 -8 -4 -14 -10 -14 -5 0 -10 -6 -10 -13 0 -7 -8 -24
-17 -37 -41 -57 -62 -150 -63 -265 0 -184 54 -312 183 -434 48 -45 142 -108
185 -123 17 -7 32 -16 32 -20 0 -4 7 -8 15 -8 8 0 23 -4 33 -9 28 -15 134 -44
177 -49 22 -2 46 -9 54 -16 12 -9 13 -8 6 3 -6 10 -4 12 6 6 7 -5 43 -10 79
-12 56 -2 69 1 95 21 29 23 29 23 12 57 -19 39 -18 39 49 73 62 31 145 111
194 187 33 52 42 69 65 134 27 74 25 267 -3 352 -57 172 -151 293 -289 376
-59 35 -76 70 -20 41 171 -89 307 -272 353 -476 11 -48 11 -153 0 -167 -8 -11
-8 -13 1 -7 9 5 11 2 6 -9 -6 -18 -10 -43 -12 -88 0 -16 -5 -26 -11 -22 -6 4
-10 -5 -10 -20 0 -55 -61 -147 -167 -250 -110 -108 -106 -97 -66 -161 9 -15 8
-23 -2 -37 -28 -38 -285 -33 -432 9 -29 8 -55 14 -58 14 -3 -1 -18 6 -33 13
-15 8 -56 29 -92 47 -36 18 -84 46 -106 61 -58 39 -158 141 -178 181 -9 18
-25 47 -35 63 -32 56 -52 156 -53 271 0 65 4 119 11 131 6 12 11 31 11 43 0
49 115 237 181 296 49 43 148 106 195 124 52 19 104 25 104 12z"/>
<path d="M848 400 l3 -260 29 0 30 0 0 135 0 134 30 16 c41 21 87 19 100 -4 5
-11 10 -78 10 -150 l0 -131 35 0 35 0 0 130 c0 140 -12 189 -48 209 -35 18
-87 13 -126 -14 l-36 -24 0 109 0 110 -32 0 -33 0 3 -260z"/>
<path d="M509 636 c-95 -34 -151 -89 -175 -173 -46 -159 36 -292 200 -323 100
-19 226 4 226 41 0 23 -3 23 -43 2 -47 -24 -151 -23 -201 2 -89 45 -131 151
-106 269 9 45 21 69 52 102 66 71 107 76 256 29 21 -7 23 -5 20 21 -2 20 -10
30 -28 35 -42 12 -163 9 -201 -5z"/>
<path d="M1913 630 c-37 -22 -63 -67 -63 -108 0 -47 39 -93 124 -143 110 -64
135 -104 104 -162 -32 -62 -107 -69 -220 -22 -14 5 -18 2 -18 -12 0 -21 34
-35 118 -48 93 -15 192 35 207 105 16 73 -22 127 -139 195 -38 22 -77 51 -87
64 -25 31 -25 83 0 105 23 21 80 15 148 -14 l41 -18 7 25 c7 31 6 33 -42 44
-67 15 -145 11 -180 -11z"/>
<path d="M1628 535 c-16 -13 -28 -30 -28 -38 0 -9 -9 -12 -30 -9 -23 3 -30 0
-30 -12 0 -11 9 -16 30 -16 l30 0 0 -138 c0 -150 7 -174 55 -186 34 -9 105 11
105 29 0 10 -9 12 -36 8 -57 -9 -64 8 -64 159 l0 128 47 -3 c39 -2 48 1 51 16
3 16 -2 18 -45 16 l-48 -3 2 37 c3 43 -2 45 -39 12z"/>
<path d="M1310 489 c-56 -10 -90 -27 -90 -45 0 -12 5 -14 18 -9 9 4 42 10 73
12 50 5 58 3 73 -18 9 -13 16 -43 16 -66 0 -38 -3 -43 -23 -43 -41 0 -118 -28
-143 -51 -30 -28 -33 -88 -6 -111 40 -36 109 -30 148 13 17 19 18 19 51 -13
32 -31 33 -31 52 -13 20 17 20 18 1 43 -17 21 -20 40 -20 128 0 105 -10 148
-39 160 -36 14 -78 20 -111 13z m88 -231 c-2 -35 -9 -46 -37 -65 -19 -13 -37
-23 -42 -23 -18 0 -39 33 -39 61 0 26 6 33 43 49 67 31 79 28 75 -22z"/>
<path d="M2297 473 c-35 -14 -48 -42 -16 -35 8 2 38 6 67 9 70 8 92 -11 92
-79 0 -40 -3 -48 -18 -48 -38 0 -125 -33 -148 -55 -43 -43 -21 -115 40 -131
26 -6 108 25 121 46 5 8 17 3 39 -18 26 -26 33 -29 48 -18 16 12 16 15 -2 52
-16 31 -20 58 -20 142 0 96 -2 105 -25 127 -20 21 -33 25 -82 24 -32 0 -75 -7
-96 -16z m143 -215 c0 -37 -5 -46 -33 -65 -40 -27 -45 -28 -69 -6 -37 33 -13
84 48 103 51 15 54 13 54 -32z"/>
</g>
</svg>
